# xmcd CD database file
#
# Track frame offsets:
#	150
#	14132
#	26657
#	38325
#	50082
#	62245
#	76947
#	92657
#	104690
#	115847
#	129037
#	142695
#
# Disc length: 2069 seconds
#
# Revision: 0
# Processed by: cddbd v1.5.2PL0 Copyright (c) Steve Scherf et al.
# Submitted via: CDex 1.70beta2
#
DISCID=9608130c
DTITLE=Lester Young With Count Basie Orchestra - Let's Go To Prez
DYEAR=1939
DGENRE=Jazz
TTITLE0=Riff Interlude
TTITLE1=Pound Cake
TTITLE2=Ham 'N Eggs
TTITLE3=Hollywood Jump
TTITLE4=I Never Knew
TTITLE5=I Left My Baby
TTITLE6=Easy Does It
TTITLE7=Tickle-Toe
TTITLE8=Louisiana
TTITLE9=Blow Top
TTITLE10=Broadway
TTITLE11=Let Me See
EXTD=YEAR: 1939
EXTT0=
EXTT1=
EXTT2=
EXTT3=
EXTT4=
EXTT5=
EXTT6=
EXTT7=
EXTT8=
EXTT9=
EXTT10=
EXTT11=
PLAYORDER=
